:SAMPLES-PER-SECOND 30
:FULLY-SPECIFIED
:DEGREES
288
root  -69.0795 25.9101 -1.64201 63.9052 63.7192 28.8685
RightUpLeg  -70.9514 -0.348097 -26.367
RightLeg  84.2087 1.64079 9.15558
RightFoot  -27.3916 -0.799198 -2.90118
RightToes  -68.936 -0.480339 -0.41458
Spine  17.498 -0.797689 5.01702
Spine1  28.0686 -3.00656 8.19199
HEad  -12.8643 -3.43695 -16.8506
LeftShoulder1  0 -2.42657e-020 -4.95415e-022
LeftArm  -20.4725 -26.9192 -81.4798
LeftForeArm  22.1462 -38.3595 -8.02219
LeftHand  0.307029 -9.03519 -4.25765
RightShoulder  0 2.42657e-020 1.07489e-018
RightArm  -79.0136 33.146 74.3265
RightForeArm  19.5281 32.1119 6.3516
RightHand  0.621784 18.1484 4.26321
LeftUpLeg  -67.6142 4.44981 -1.1045
LeftLeg  85.5606 0.67877 4.69762
LeftFoot  -19.2549 -0.430778 -2.53912
LeftToes  -17.6059 2.01279e-006 2.21547e-008
289
root  -68.0209 25.4064 -2.53226 60.7486 63.8094 26.9363
RightUpLeg  -68.6343 -1.80837 -26.6269
RightLeg  84.9534 1.75277 10.6325
RightFoot  -26.5499 -0.864635 -3.28618
RightToes  -75.1858 -0.54136 -0.415758
Spine  16.2546 -1.3526 4.92345
Spine1  27.6332 -2.7698 5.41722
HEad  -12.4169 2.7925 -19.6157
LeftShoulder1  0 -2.42657e-020 -4.95415e-022
LeftArm  -28.2328 -19.3099 -78.0324
LeftForeArm  15.4001 -40.1256 -8.54665
LeftHand  0.295763 -7.25185 -5.0395
RightShoulder  0 2.42657e-020 1.07489e-018
RightArm  -77.2478 31.1973 82.339
RightForeArm  10.519 38.6276 8.09874
RightHand  1.25677 18.717 7.98761
LeftUpLeg  -60.9752 8.46863 7.11729
LeftLeg  82.7964 1.47187 7.57245
LeftFoot  -17.0126 -0.518866 -3.46817
LeftToes  -17.8089 2.01279e-006 2.21547e-008
290
root  -66.7367 24.8433 -3.50403 57.1861 63.0674 25.1587
RightUpLeg  -65.0315 -2.81348 -29.0635
RightLeg  84.743 1.93711 11.5163
RightFoot  -27.2332 -0.964711 -3.60362
RightToes  -76.6947 -0.556121 -0.417823
Spine  15.473 -0.79215 5.00077
Spine1  27.4063 -0.714061 3.99785
HEad  -10.5632 4.29068 -23.1939
LeftShoulder1  0 -2.42657e-020 -4.95415e-022
LeftArm  -33.9037 -13.8972 -79.7465
LeftForeArm  12.9179 -38.4135 -8.03395
LeftHand  0.28595 -6.6196 -5.31702
RightShoulder  0 2.42657e-020 1.07489e-018
RightArm  -61.5608 25.4781 78.3023
RightForeArm  10.7559 44.2899 9.91166
RightHand  -0.110856 19.697 -0.268637
LeftUpLeg  -53.7884 11.1207 14.2706
LeftLeg  78.4245 2.57223 9.31826
LeftFoot  -17.4938 -0.640583 -4.16167
LeftToes  -14.4262 2.01279e-006 2.21547e-008
291
root  -65.4225 24.2743 -4.65772 54.7916 63.1038 23.9651
RightUpLeg  -61.5828 -5.19345 -31.7645
RightLeg  83.4369 1.56345 8.05214
RightFoot  -27.9146 -0.531229 -1.7597
RightToes  -75.5976 -0.545389 -0.417988
Spine  14.9563 0.809378 5.53743
Spine1  27.136 3.67445 3.35055
HEad  -7.56385 3.61894 -23.5795
LeftShoulder1  0 -2.42657e-020 -4.95415e-022
LeftArm  -35.4559 -10.0754 -81.8518
LeftForeArm  12.4958 -36.9635 -7.62015
LeftHand  0.273368 -6.45971 -5.21692
RightShoulder  0 2.42657e-020 1.07489e-018
RightArm  -57.8512 25.8941 68.0417
RightForeArm  14.3648 43.6654 9.69826
RightHand  -1.61169 22.0078 -7.90678
LeftUpLeg  -49.6123 11.768 21.1059
LeftLeg  73.6596 3.52891 9.56863
LeftFoot  -19.0094 -0.798301 -4.7654
LeftToes  -11.8786 2.01279e-006 2.21547e-008
292
root  -64.0735 23.7276 -5.87321 54.8597 64.8892 25.1977
RightUpLeg  -55.4394 -8.11778 -33.6696
RightLeg  83.4711 -1.37631 -8.1257
RightFoot  -29.6393 1.65786 6.63797
RightToes  -49.0507 -0.294514 -0.360338
Spine  15.1316 2.28294 6.41915
Spine1  27.8715 8.60622 2.47219
HEad  -6.40774 2.40534 -22.3725
LeftShoulder1  0 -2.42657e-020 -4.95415e-022
LeftArm  -36.9175 -9.21418 -81.4916
LeftForeArm  12.6786 -36.0854 -7.37777
LeftHand  0.305342 -6.65606 -5.62303
RightShoulder  0 2.42657e-020 1.07489e-018
RightArm  -57.8047 29.7175 53.9661
RightForeArm  27.0724 34.0424 6.84064
RightHand  -2.78274 24.32 -12.4957
LeftUpLeg  -48.5335 11.7479 27.2808
LeftLeg  67.7574 3.63171 7.4101
LeftFoot  -17.1736 -0.616011 -4.07788
LeftToes  -16.4436 2.01279e-006 2.21547e-008
293
root  -62.566 23.1838 -7.12179 55.0072 65.8407 26.3338
RightUpLeg  -49.7888 -10.5902 -37.338
RightLeg  79.8223 -1.33514 -5.75919
RightFoot  -29.624 1.42101 5.74776
RightToes  -57.7574 -0.373497 -0.392028
Spine  15.019 3.67587 6.05758
Spine1  27.2566 12.8204 1.13977
HEad  -3.90491 0.48102 -20.9914
LeftShoulder1  0 -2.42657e-020 -4.95415e-022
LeftArm  -38.0393 -9.77839 -76.9456
LeftForeArm  10.3676 -34.98 -7.07848
LeftHand  0.26767 -5.90532 -5.56243
RightShoulder  0 2.42657e-020 1.07489e-018
RightArm  -60.318 33.0543 42.0041
RightForeArm  48.2407 17.5534 3.17099
RightHand  -3.43868 30.5078 -12.1951
LeftUpLeg  -48.2002 15.1899 30.8391
LeftLeg  60.6593 2.55144 3.90733
LeftFoot  -16.9213 -0.488617 -3.28396
LeftToes  -18.4006 2.01279e-006 2.21547e-008
294
root  -60.8274 22.7528 -8.33305 56.9035 68.5778 29.7908
RightUpLeg  -40.4022 -12.4359 -40.8278
RightLeg  73.6182 -1.45522 -4.19492
RightFoot  -29.4614 1.20329 4.95207
RightToes  -63.6749 -0.429512 -0.406566
Spine  14.0522 4.1764 4.6085
Spine1  24.5493 13.5311 0.769263
HEad  0.65723 -4.7324 -16.0247
LeftShoulder1  0 -2.42657e-020 -4.95415e-022
LeftArm  -39.1708 -12.2529 -69.1839
LeftForeArm  8.64425 -33.5453 -6.70301
LeftHand  0.262917 -5.44914 -5.89797
RightShoulder  0 2.42657e-020 1.07489e-018
RightArm  -57.6326 33.0499 36.4077
RightForeArm  89.9472 0.497258 -0.0278835
RightHand  -2.71026 28.4552 -10.2925
LeftUpLeg  -50.5142 21.7146 31.1095
LeftLeg  53.7111 1.36443 1.61873
LeftFoot  -14.5117 -0.330869 -2.5983
LeftToes  -29.4639 2.01279e-006 2.21547e-008
295
root  -58.7932 22.6357 -9.61775 64.3565 72.106 37.9305
RightUpLeg  -28.4493 -16.1455 -43.9158
RightLeg  63.9576 -1.2273 -2.26085
RightFoot  -27.7611 0.776767 3.52025
RightToes  -66.1198 -0.45304 -0.410871
Spine  11.6868 3.6777 1.91171
Spine1  19.4534 11.1412 -0.729912
HEad  5.00453 -11.0279 -8.89106
LeftShoulder1  0 -2.42657e-020 -4.95415e-022
LeftArm  -39.6524 -14.0281 -59.8665
LeftForeArm  11.8665 -34.0233 -6.8289
LeftHand  0.245781 -5.70176 -5.30888
RightShoulder  0 2.42657e-020 1.07489e-018
RightArm  -59.0739 24.2745 43.3876
RightForeArm  81.0339 -0.214075 -0.124986
RightHand  -1.058 14.6758 -7.83549
LeftUpLeg  -55.2813 27.4654 27.2933
LeftLeg  46.579 1.22129 1.1279
LeftFoot  -10.3826 -0.192453 -2.11803
LeftToes  -39.1009 2.01279e-006 2.21547e-008
296
root  -56.2745 22.712 -10.9395 70.448 77.8332 44.8598
RightUpLeg  -13.8798 -17.0371 -43.282
RightLeg  50.3511 -1.76372 -1.91554
RightFoot  -19.4848 0.39394 2.67177
RightToes  -70.7015 -0.497534 -0.41622
Spine  9.80164 2.47527 1.42234
Spine1  16.4343 7.10747 0.706639
HEad  9.2464 -14.8483 -4.97418
LeftShoulder1  0 -2.42657e-020 -4.95415e-022
LeftArm  -40.2655 -15.4642 -54.5592
LeftForeArm  14.4119 -33.8151 -6.77676
LeftHand  0.206059 -6.89558 -3.79293
RightShoulder  0 2.42657e-020 1.07489e-018
RightArm  -63.1739 14.4191 51.2213
RightForeArm  72.2206 5.24752 0.858595
RightHand  -0.960988 20.0744 -5.05707
LeftUpLeg  -60.72 32.2823 23.4075
LeftLeg  44.1491 -0.621994 -0.536727
LeftFoot  -6.33167 -0.0719038 -1.29995
LeftToes  -46.6061 2.01279e-006 2.21547e-008
